<?xml version="1.0" encoding="utf-8"?>
<!-- Generator: Adobe Illustrator 19.2.1, SVG Export Plug-In . SVG Version: 6.00 Build 0)  -->
<svg version="1.1" id="layer" xmlns="http://www.w3.org/2000/svg" xmlns:xlink="http://www.w3.org/1999/xlink" x="0px" y="0px"
	 viewBox="0 0 652 652" style="enable-background:new 0 0 652 652;" xml:space="preserve">
<path d="M234.3,163.3c15.1,0,27.3,12.2,27.3,27.3c0,15.1-12.2,27.3-27.3,27.3c-15.1,0-27.3-12.2-27.3-27.3
	C207.1,175.5,219.3,163.3,234.3,163.3z M213.6,237.6h40.4c1.9,0,3.8,1.9,3.8,3.8V484c0,1.9-1.9,3.8-3.8,3.8h-40.4
	c-1.9,0-3.8-1.9-3.8-3.8V241.4C209.9,239.5,211.8,237.6,213.6,237.6z M302,163.3h40.4c1.9,0,3.8,1.9,3.8,3.8v316
	c0,1.9-1.9,3.8-3.8,3.8H302c-1.9,0-3.8-1.9-3.8-3.8v-316C298.3,165.2,300.2,163.3,302,163.3z M168.5,237.6h-94v-70.5
	c0-1.9-1.9-3.8-3.8-3.8H30.3c-1.9,0-3.8,1.9-3.8,3.8v194.7c0,68.7,56.4,125.1,125.1,125.1h16.9c1.9,0,3.8-1.9,3.8-3.8v-40.4
	c0-1.9-1.9-3.8-3.8-3.8h-16.9c-42.3,0-77.1-34.8-77.1-77.1v-77.1h94c1.9,0,3.8-1.9,3.8-3.8v-40.4
	C172.3,238.6,170.4,237.6,168.5,237.6z M589.8,274.3c-48.9-48-127-48-175.9,0s-48,127,0,175.9s127,48,175.9,0
	c8.5-8.5,16-17.9,21.6-29.2c0-0.9-0.9-1.9-1.9-1.9h-51.7l-5.6,1.9c-32,28.2-80.9,24.5-109.1-8.5c-8.5-10.3-15-22.6-16.9-35.7
	c0-1.9,0.9-2.8,2.8-2.8h193.7c1.9,0,3.8-1.9,3.8-3.8v-7.5C626.5,329.8,613.3,297.8,589.8,274.3z M567.3,330.7H435.6
	c-1.9,0-2.8-0.9-2.8-2.8c13.2-25.4,39.5-41.4,67.7-41.4s54.5,16,67.7,41.4C568.2,328.8,568.2,329.8,567.3,330.7z"/>
</svg>
